<?xml version="1.0" standalone="no"?>
<!DOCTYPE svg PUBLIC "-//W3C//DTD SVG 20010904//EN"
 "http://www.w3.org/TR/2001/REC-SVG-20010904/DTD/svg10.dtd">
<svg version="1.0" xmlns="http://www.w3.org/2000/svg"
 width="512.000000pt" height="512.000000pt" viewBox="0 0 512.000000 512.000000"
 preserveAspectRatio="xMidYMid meet">

<g transform="translate(0.000000,512.000000) scale(0.100000,-0.100000)"
fill="#000000" stroke="none">
<path style="fill:rgb(31, 172, 225);"  d="M3197 5110 c-116 -20 -246 -111 -311 -218 -55 -92 -66 -144 -66 -325
0 -225 27 -304 141 -420 209 -210 568 -165 723 91 56 93 66 144 66 332 0 141
-3 176 -20 225 -56 164 -201 288 -366 315 -67 11 -99 11 -167 0z m211 -190
c65 -28 134 -102 156 -167 12 -34 16 -85 16 -188 0 -168 -12 -213 -76 -284
-59 -65 -127 -95 -219 -95 -122 0 -219 63 -269 174 -27 59 -27 65 -24 218 3
142 5 161 26 202 77 148 238 205 390 140z"/>
<path style="fill:rgb(31, 172, 225);"  d="M4745 4259 c-11 -6 -185 -176 -387 -377 l-366 -365 -684 321 c-376
177 -703 326 -728 331 -27 6 -253 11 -566 11 -492 0 -526 -1 -586 -20 -71 -22
-137 -62 -185 -112 -44 -46 -723 -1104 -729 -1137 -8 -41 25 -74 174 -172 152
-101 181 -109 231 -61 16 15 189 206 386 425 l356 397 246 0 c138 0 243 -4
241 -9 -1 -5 -228 -389 -503 -855 l-500 -846 -545 0 c-413 -1 -549 -4 -561
-13 -37 -28 -39 -48 -39 -414 0 -328 2 -361 19 -399 49 -107 202 -143 291 -68
16 14 59 82 95 152 36 70 70 131 74 135 4 4 226 -8 494 -27 531 -39 550 -38
657 12 96 45 148 110 389 490 152 240 227 350 235 344 6 -5 191 -140 412 -300
l400 -291 -82 -658 c-46 -362 -83 -666 -84 -676 0 -10 13 -32 29 -48 l29 -29
364 0 c332 0 366 2 403 19 99 46 141 158 96 256 -23 49 -49 74 -148 139 -46
30 -77 57 -76 66 1 8 48 258 103 555 107 567 116 647 86 731 -22 64 -53 120
-88 159 -17 20 -196 156 -397 302 -201 146 -367 267 -368 268 -2 1 329 537
341 552 1 1 139 -60 306 -137 381 -172 385 -174 503 -168 110 6 185 37 261
107 58 55 763 1105 773 1151 3 19 0 38 -10 53 -18 27 -282 204 -317 211 -14 3
-34 1 -45 -5z m106 -230 c37 -25 58 -46 55 -54 -16 -42 -649 -976 -680 -1003
-57 -50 -100 -64 -181 -59 -61 3 -90 13 -230 77 -88 40 -164 76 -168 80 -6 6
141 320 159 339 2 2 44 -15 93 -37 49 -23 102 -42 117 -42 24 0 88 60 399 370
203 203 371 370 373 370 2 0 30 -18 63 -41z m-2891 -189 l0 -170 -177 0 c-120
-1 -185 -5 -200 -13 -12 -7 -179 -187 -372 -402 -193 -214 -357 -394 -364
-399 -17 -11 -130 62 -123 79 17 45 614 959 651 997 67 70 97 76 363 77 l222
1 0 -170z m1135 -89 c297 -140 544 -257 548 -261 11 -9 -154 -340 -169 -340
-6 0 -55 20 -108 45 -99 46 -133 53 -166 35 -10 -6 -107 -152 -216 -325 -108
-173 -201 -315 -206 -315 -10 0 -739 329 -750 339 -4 4 60 121 143 261 249
422 240 400 190 451 -29 28 -32 29 -130 29 l-101 0 0 171 0 170 213 -3 212 -3
540 -254z m-729 -1166 l409 -186 200 -145 c110 -80 204 -150 209 -158 6 -8
-31 -71 -116 -198 l-124 -186 -343 249 c-189 137 -353 252 -366 255 -49 12
-74 -15 -220 -244 -78 -123 -147 -228 -152 -233 -11 -11 -423 189 -423 205 0
9 462 797 483 824 13 16 -39 37 443 -183z m1104 -692 c124 -92 160 -148 161
-243 0 -30 -45 -296 -100 -591 -56 -294 -101 -538 -101 -542 0 -4 -67 -7 -150
-7 -130 0 -150 2 -150 16 0 8 25 213 55 454 30 241 55 454 55 473 0 37 -29 69
-111 124 -22 14 -39 32 -37 38 2 7 57 94 123 193 93 140 123 178 135 172 8 -5
62 -44 120 -87z m-1915 -205 c113 -57 205 -107 205 -113 -1 -5 -31 -55 -68
-110 -77 -115 -127 -153 -214 -164 -30 -3 -245 8 -503 26 -247 18 -453 32
-457 33 -5 0 -8 59 -8 130 l0 130 354 0 c408 0 379 -7 442 106 20 35 38 64 40
64 2 0 96 -46 209 -102z m-1215 -228 l0 -160 -67 -135 c-47 -94 -73 -135 -83
-133 -13 3 -15 45 -18 296 l-2 292 85 0 85 0 0 -160z m3233 -1186 c150 -100
152 -98 -198 -102 l-290 -2 9 85 9 85 186 0 186 0 98 -66z"/>
</g>
</svg>
