<?xml version="1.0" standalone="no"?>
<!DOCTYPE svg PUBLIC "-//W3C//DTD SVG 20010904//EN"
 "http://www.w3.org/TR/2001/REC-SVG-20010904/DTD/svg10.dtd">
<svg version="1.0" xmlns="http://www.w3.org/2000/svg"
 width="512.000000pt" height="512.000000pt" viewBox="0 0 512.000000 512.000000"
 preserveAspectRatio="xMidYMid meet">

<g transform="translate(0.000000,512.000000) scale(0.100000,-0.100000)"
fill="#000000" stroke="none">
<path style="fill:rgb(31, 172, 225);"  d="M865 5114 c-128 -20 -256 -84 -345 -174 -114 -114 -171 -249 -173
-405 -1 -111 14 -180 57 -269 l33 -68 -218 -687 -219 -686 0 -438 c0 -449 1
-465 39 -494 12 -9 155 -12 593 -13 l576 0 6 -27 c3 -16 78 -425 166 -909 88
-485 162 -888 166 -897 3 -9 16 -23 29 -31 22 -14 131 -16 985 -16 854 0 963
2 985 16 13 8 26 22 29 31 4 9 78 412 166 897 88 484 163 893 166 908 l6 28
576 0 c438 1 581 4 593 13 38 29 39 45 39 494 l0 438 -219 686 -218 687 33 68
c18 38 39 94 45 124 16 74 16 203 0 270 -52 217 -239 399 -456 445 -367 77
-715 -199 -718 -569 0 -111 14 -178 61 -276 48 -100 169 -224 259 -265 48 -22
63 -35 67 -54 27 -132 147 -813 144 -816 -2 -2 -26 3 -53 11 -59 18 -190 20
-258 5 -104 -24 -228 -106 -287 -190 l-35 -50 -233 -1 -232 0 56 68 c30 37 73
104 95 148 63 131 71 187 67 499 -4 262 -5 272 -31 351 -53 159 -179 308 -325
387 -193 104 -448 104 -646 0 -102 -54 -229 -183 -279 -283 -67 -135 -77 -198
-77 -484 0 -181 4 -270 15 -320 20 -93 82 -217 149 -298 l56 -68 -232 0 -233
1 -35 50 c-69 99 -208 180 -335 197 -73 10 -179 1 -229 -18 -16 -6 -31 -8 -33
-6 -4 4 115 685 142 816 4 19 21 32 68 54 86 41 213 168 255 256 45 92 62 170
62 277 0 262 -173 491 -429 567 -57 17 -185 27 -236 20z m200 -189 c88 -25
179 -94 232 -178 81 -129 84 -311 7 -443 -35 -60 -125 -141 -191 -172 -52 -24
-69 -27 -173 -27 -110 0 -118 2 -182 33 -165 81 -264 262 -238 439 19 140 113
267 237 326 102 47 193 53 308 22z m3235 3 c156 -47 277 -187 300 -347 26
-183 -72 -366 -235 -442 -309 -145 -649 106 -603 443 34 251 295 419 538 346z
m-1600 -684 c173 -51 322 -210 359 -382 17 -84 15 -504 -4 -577 -58 -221 -268
-385 -495 -385 -227 0 -437 164 -495 385 -19 73 -21 493 -4 577 36 169 177
322 349 379 71 23 216 25 290 3z m-1964 -284 c29 -10 92 -24 141 -30 48 -6 88
-12 89 -13 1 -1 -38 -220 -87 -487 -49 -267 -89 -498 -89 -513 0 -40 40 -77
84 -77 28 0 47 10 92 50 98 86 223 112 344 73 61 -20 151 -96 180 -154 11 -20
31 -47 46 -58 27 -21 27 -21 1021 -21 683 0 1001 3 1014 11 11 5 35 34 54 63
75 118 154 167 280 174 102 5 167 -18 250 -88 45 -38 67 -50 93 -50 42 0 82
38 82 77 0 15 -40 246 -89 513 -49 267 -88 486 -87 487 1 1 38 7 82 12 98 11
190 42 261 87 37 23 55 30 58 22 2 -7 92 -290 200 -628 l195 -614 0 -373 0
-373 -555 0 c-618 0 -614 0 -633 -62 -9 -28 -332 -1790 -332 -1811 0 -4 -59
-7 -131 -7 -121 0 -131 1 -124 18 31 75 30 160 -3 228 -16 36 -16 37 2 48 156
90 199 301 90 444 l-26 33 20 22 c56 60 80 168 58 257 -19 74 -19 70 -3 70 22
0 131 56 166 86 35 29 91 100 91 115 0 5 -32 25 -71 44 l-71 36 -36 -39 c-72
-77 -68 -77 -425 -80 l-317 -3 2 393 3 392 383 77 c210 42 384 78 386 80 2 2
-3 39 -11 82 -12 58 -20 77 -32 77 -9 0 -197 -36 -418 -80 l-403 -81 -447 81
c-247 45 -454 82 -462 83 -11 1 -19 -19 -29 -76 -8 -43 -12 -81 -8 -84 3 -3
196 -40 428 -82 l423 -77 3 -393 2 -392 -317 3 c-357 3 -353 3 -425 80 l-36
39 -71 -36 c-39 -19 -71 -39 -71 -44 0 -5 18 -32 41 -61 44 -56 106 -100 178
-127 25 -9 47 -17 49 -18 1 -1 -5 -30 -14 -64 -22 -90 2 -198 58 -258 l20 -22
-26 -33 c-67 -89 -80 -213 -32 -311 25 -51 75 -106 122 -133 18 -11 18 -12 2
-48 -33 -68 -34 -153 -3 -228 7 -17 -3 -18 -124 -18 -72 0 -131 3 -131 7 0 21
-323 1783 -332 1811 -19 62 -15 62 -633 62 l-555 0 0 373 0 373 195 614 c108
338 197 620 200 627 3 8 23 1 61 -22 32 -19 81 -44 110 -55z m1734 -2810 l0
-130 -195 0 c-213 0 -245 6 -283 54 -33 43 -37 80 -12 130 34 71 52 76 288 76
l202 0 0 -130z m616 114 c42 -20 79 -90 69 -133 -3 -17 -16 -42 -27 -57 -38
-48 -70 -54 -283 -54 l-195 0 0 130 0 130 201 0 c163 0 207 -3 235 -16z m-616
-539 l0 -125 -207 0 c-186 0 -211 2 -239 19 -61 37 -77 117 -36 179 31 47 53
51 275 52 l207 0 0 -125z m619 111 c86 -45 86 -177 0 -222 -22 -11 -74 -14
-234 -14 l-205 0 0 125 0 125 205 0 c160 0 212 -3 234 -14z m-619 -536 l0
-130 -138 0 c-156 0 -192 11 -224 71 -24 45 -23 79 5 120 38 58 74 69 225 69
l132 0 0 -130z m480 112 c41 -20 80 -74 80 -111 0 -40 -33 -92 -71 -113 -28
-15 -57 -18 -171 -18 l-138 0 0 130 0 130 133 0 c106 0 139 -4 167 -18z"/>
<path style="fill:rgb(31, 172, 225);" d="M893 4769 c-198 -37 -275 -285 -132 -428 123 -124 336 -85 410 74 25
53 25 156 0 210 -47 104 -164 165 -278 144z m104 -191 c51 -48 15 -138 -56
-138 -47 0 -81 32 -81 79 0 72 84 109 137 59z"/>
<path style="fill:rgb(31, 172, 225);"  d="M4133 4769 c-123 -23 -203 -120 -203 -249 0 -145 106 -252 250 -252
142 0 252 110 252 252 0 160 -142 278 -299 249z m104 -191 c51 -48 15 -138
-56 -138 -47 0 -81 32 -81 79 0 72 84 109 137 59z"/>
<path style="fill:rgb(31, 172, 225);" d="M847 2554 c-63 -32 -67 -36 -56 -56 24 -45 110 -125 162 -152 70 -35
154 -47 297 -44 l115 3 3 81 3 82 -148 4 c-167 5 -208 18 -260 83 -15 19 -32
35 -38 35 -5 -1 -40 -17 -78 -36z"/>
<path style="fill:rgb(31, 172, 225);" d="M4156 2554 c-54 -65 -92 -77 -259 -82 l-148 -4 3 -82 3 -81 115 -3
c140 -3 227 9 294 42 55 27 139 104 162 148 l14 28 -70 35 c-38 19 -73 35 -77
34 -5 0 -21 -16 -37 -35z"/>
</g>
</svg>
