<?xml version="1.0" standalone="no"?>
<!DOCTYPE svg PUBLIC "-//W3C//DTD SVG 20010904//EN"
 "http://www.w3.org/TR/2001/REC-SVG-20010904/DTD/svg10.dtd">
<svg version="1.0" xmlns="http://www.w3.org/2000/svg"
 width="512.000000pt" height="512.000000pt" viewBox="0 0 512.000000 512.000000"
 preserveAspectRatio="xMidYMid meet">

<g style="fill:rgba(255, 255, 255, 0.8);" transform="translate(0.000000,512.000000) scale(0.100000,-0.100000)"
fill="#000000" stroke="none">
<path d="M1168 3782 c-43 -20 -1104 -1062 -1140 -1120 -33 -52 -33 -152 0
-204 36 -58 1097 -1100 1140 -1120 113 -53 258 29 270 151 10 111 25 91 -381
498 l-371 373 2149 2 2150 3 38 24 c21 13 50 42 65 64 23 34 27 52 27 107 0
55 -4 73 -27 107 -15 22 -44 51 -65 64 l-38 24 -2150 3 -2149 2 371 373 c406
407 391 387 381 498 -12 122 -157 204 -270 151z"/>
</g>
</svg>
