<?xml version="1.0" standalone="no"?>
<!DOCTYPE svg PUBLIC "-//W3C//DTD SVG 20010904//EN"
 "http://www.w3.org/TR/2001/REC-SVG-20010904/DTD/svg10.dtd">
<svg version="1.0" xmlns="http://www.w3.org/2000/svg"
 width="512.000000pt" height="512.000000pt" viewBox="0 0 512.000000 512.000000"
 preserveAspectRatio="xMidYMid meet">

<g transform="translate(0.000000,512.000000) scale(0.100000,-0.100000)"
fill="white" stroke="none">
<path d="M2745 5106 c-84 -21 -147 -57 -210 -121 -178 -177 -178 -453 0 -630
70 -71 146 -110 245 -127 l68 -12 -31 -37 c-18 -20 -43 -68 -56 -106 -78 -223
-204 -375 -358 -433 -33 -12 -101 -25 -164 -30 -58 -6 -135 -19 -170 -30 -148
-46 -285 -164 -356 -306 -58 -118 -50 -178 31 -238 26 -20 43 -21 312 -24 324
-3 406 6 555 62 142 53 239 117 365 241 157 155 269 333 348 553 47 131 29
241 -53 334 -32 37 -121 88 -152 88 -11 0 4 21 45 63 181 181 181 452 1 633
-112 113 -269 158 -420 120z"/>
<path d="M3590 3727 c-66 -178 -194 -400 -300 -520 l-40 -45 20 -88 c22 -106
40 -258 40 -350 0 -186 65 -431 154 -581 197 -332 626 -562 1153 -618 84 -9
143 16 172 74 19 36 21 58 21 222 0 261 -10 277 -204 310 -403 69 -627 220
-680 460 -8 35 -17 125 -20 199 -15 331 -90 640 -231 948 -21 45 -41 82 -44
82 -3 0 -22 -42 -41 -93z"/>
<path d="M78 3589 c-43 -22 -78 -81 -78 -131 0 -18 10 -51 23 -73 20 -37 41
-50 282 -171 142 -73 261 -137 263 -142 2 -6 -33 -161 -78 -344 -265 -1082
-447 -1908 -481 -2185 -21 -167 14 -290 112 -398 55 -60 156 -117 237 -134 30
-6 157 -11 297 -11 l245 0 0 1455 c0 800 2 1455 5 1455 2 0 95 -45 205 -100
221 -110 247 -116 314 -77 73 42 96 126 53 202 -21 39 -46 52 -655 358 -681
342 -668 337 -744 296z"/>
<path d="M3018 2219 c-171 -391 -281 -826 -304 -1207 l-7 -112 302 0 301 0 0
43 c0 138 47 404 112 634 l31 113 -75 78 c-133 140 -226 292 -286 471 l-28 85
-46 -105z"/>
<path d="M1200 300 l0 -300 1848 2 1847 3 46 21 c66 31 114 78 146 142 23 47
28 70 28 132 0 125 -62 222 -174 274 l-46 21 -1847 3 -1848 2 0 -300z"/>
</g>
</svg>
