<?xml version="1.0" standalone="no"?>
<!DOCTYPE svg PUBLIC "-//W3C//DTD SVG 20010904//EN"
 "http://www.w3.org/TR/2001/REC-SVG-20010904/DTD/svg10.dtd">
<svg version="1.0" xmlns="http://www.w3.org/2000/svg"
 width="512.000000pt" height="512.000000pt" viewBox="0 0 512.000000 512.000000"
 preserveAspectRatio="xMidYMid meet">

<g transform="translate(0.000000,512.000000) scale(0.100000,-0.100000)"
fill="#000000" stroke="none">
<path d="M2438 4934 c-139 -33 -293 -154 -352 -275 -120 -248 -43 -536 185
-688 163 -109 401 -113 564 -10 237 151 321 445 198 698 -37 76 -152 190 -232
230 -113 57 -246 74 -363 45z"/>
<path d="M360 4643 c-8 -3 -25 -15 -37 -26 -23 -20 -23 -24 -23 -262 l0 -242
-94 -5 c-113 -6 -154 -26 -185 -92 -26 -54 -26 -88 0 -142 32 -66 74 -87 186
-92 l93 -4 0 -242 0 -243 26 -24 c25 -23 31 -24 176 -24 l150 0 24 28 c24 28
24 29 24 268 l0 239 168 0 168 0 47 -457 c53 -512 55 -519 135 -580 79 -60
183 -68 266 -19 25 15 108 101 211 220 93 108 173 196 177 196 5 0 8 -200 8
-445 0 -431 -1 -445 -20 -455 -10 -6 -202 -85 -425 -175 -450 -183 -469 -192
-519 -236 -73 -64 -78 -81 -177 -729 -98 -645 -100 -669 -56 -756 56 -110 154
-169 277 -168 123 1 217 59 269 167 27 56 38 112 104 550 40 268 76 490 80
493 3 4 182 78 397 165 l391 159 359 0 360 0 392 -159 c271 -110 395 -165 400
-178 4 -10 39 -229 78 -487 39 -258 77 -486 85 -508 43 -125 155 -203 290
-203 160 1 291 121 302 278 6 82 -167 1217 -195 1280 -33 75 -79 117 -177 162
-49 23 -262 111 -472 196 l-383 154 0 453 c0 248 2 452 3 452 2 0 84 -92 182
-204 111 -128 193 -212 219 -227 56 -32 162 -33 223 -1 49 26 100 84 114 132
6 19 31 235 57 480 l47 445 168 3 167 2 0 -239 c0 -239 0 -240 24 -268 l24
-28 150 0 c145 0 151 1 176 24 l26 24 0 243 0 242 93 4 c112 5 154 26 186 92
26 54 26 88 0 142 -31 66 -72 86 -185 92 l-94 5 0 242 0 242 -26 24 c-25 23
-31 24 -176 24 l-150 0 -24 -28 c-24 -28 -24 -29 -24 -268 l0 -239 -150 0
-150 0 0 26 c0 79 -57 166 -133 203 -54 26 -153 28 -200 5 -42 -21 -95 -71
-114 -108 -8 -16 -18 -50 -22 -75 l-6 -46 -206 -3 -205 -2 -38 -68 c-75 -130
-237 -267 -376 -318 -164 -59 -355 -60 -518 0 -142 52 -314 197 -383 324 l-34
62 -202 0 -203 0 -5 28 c-22 105 -62 165 -136 203 -45 23 -144 26 -192 6 -77
-33 -132 -106 -144 -192 l-6 -45 -148 0 -149 0 0 239 c0 239 0 240 -24 268
-24 28 -24 28 -163 30 -76 1 -145 0 -153 -4z m1418 -880 c-68 -82 -231 -263
-233 -261 -2 2 -8 50 -14 108 -6 58 -14 120 -17 138 l-5 32 142 0 c134 0 141
-1 127 -17z m1828 -20 c-3 -21 -11 -83 -17 -138 -6 -55 -12 -101 -14 -103 -1
-1 -49 50 -105 115 -57 65 -112 128 -123 141 l-20 22 142 0 143 0 -6 -37z"/>
</g>
</svg>
