<?xml version="1.0" standalone="no"?>
<!DOCTYPE svg PUBLIC "-//W3C//DTD SVG 20010904//EN"
 "http://www.w3.org/TR/2001/REC-SVG-20010904/DTD/svg10.dtd">
<svg version="1.0" xmlns="http://www.w3.org/2000/svg"
 width="512.000000pt" height="512.000000pt" viewBox="0 0 512.000000 512.000000"
 preserveAspectRatio="xMidYMid meet">

<g transform="translate(0.000000,512.000000) scale(0.100000,-0.100000)"
fill="white" stroke="none">
<path d="M355 5108 c-44 -25 -44 -30 -45 -350 l0 -308 -100 0 c-94 0 -103 -2
-125 -25 -30 -29 -32 -74 -6 -106 17 -22 29 -24 123 -29 l103 -5 5 -313 5
-314 24 -19 c22 -18 43 -19 305 -19 l283 0 24 26 24 26 3 309 3 310 37 -3 c37
-3 37 -3 34 -43 -2 -22 3 -60 11 -85 12 -38 703 -1288 815 -1474 l35 -59 28
-296 c16 -163 28 -312 29 -333 0 -35 -9 -45 -255 -268 -160 -144 -257 -240
-261 -256 -8 -30 12 -80 40 -99 20 -15 19 -17 -55 -93 -42 -42 -248 -259 -459
-481 -273 -288 -388 -416 -402 -449 -43 -96 -18 -214 59 -283 80 -72 188 -88
281 -40 27 14 190 178 499 504 l458 483 58 -48 c44 -37 66 -48 92 -48 41 0 30
-11 338 332 127 142 234 258 237 258 3 0 169 -74 368 -164 200 -91 370 -166
380 -167 39 -4 55 3 82 31 l28 30 113 -51 c63 -27 118 -54 122 -58 4 -4 -22
-185 -58 -402 -36 -217 -66 -419 -67 -449 -2 -179 186 -302 348 -226 55 26
118 91 133 140 16 50 181 1051 181 1098 0 56 -37 135 -82 174 -20 17 -138 76
-282 140 -239 105 -247 110 -241 134 19 80 17 105 -7 127 -12 12 -122 63 -243
114 -121 51 -221 92 -222 93 0 1 11 119 27 264 26 252 29 265 54 291 25 26
780 1366 837 1486 22 45 29 75 29 118 0 55 1 58 23 55 l22 -3 5 -313 5 -314
24 -19 c22 -18 43 -19 305 -19 l283 0 24 26 24 26 3 309 3 309 98 0 c84 0 100
3 119 20 33 31 33 82 -1 118 -19 20 -30 22 -118 22 l-98 0 -3 311 -3 311 -28
24 -28 24 -270 0 c-275 0 -298 -3 -326 -39 -9 -12 -12 -98 -13 -324 l0 -308
-102 4 c-57 2 -126 10 -154 17 -44 10 -60 10 -107 -4 -49 -14 -178 -16 -1204
-16 -1033 0 -1155 2 -1216 16 -63 16 -72 16 -127 0 -37 -10 -97 -16 -159 -16
l-100 0 -3 311 -3 311 -28 24 -28 24 -272 0 c-186 -1 -278 -4 -292 -12z m203
-740 l-3 -583 -37 -3 -38 -3 0 585 0 586 40 0 40 0 -2 -582z m252 -3 l0 -585
-40 0 -40 0 0 585 0 585 40 0 40 0 0 -585z m3588 3 l-3 -583 -37 -3 -38 -3 0
585 0 586 40 0 40 0 -2 -582z m250 0 l-3 -583 -37 -3 -38 -3 0 585 0 586 40 0
40 0 -2 -582z m-3290 -87 c7 -4 164 -277 348 -606 323 -579 333 -599 313 -612
-28 -21 -58 -53 -79 -86 l-18 -29 -25 44 c-221 381 -670 1201 -674 1229 -7 49
15 69 75 69 26 0 53 -4 60 -9z m2230 -5 c-2 -7 -147 -270 -323 -585 l-319
-571 -371 0 -370 1 -322 578 c-178 318 -323 581 -323 585 0 3 457 6 1016 6
854 0 1015 -2 1012 -14z m326 -2 c37 -36 25 -61 -341 -716 l-357 -639 -19 38
c-11 21 -35 54 -54 74 l-35 37 337 603 c186 332 343 607 349 611 21 14 104 9
120 -8z m-945 -1330 c37 -8 79 -47 88 -83 3 -14 -13 -211 -36 -437 -39 -377
-41 -414 -28 -441 13 -25 45 -42 224 -116 114 -48 214 -92 222 -96 11 -7 2
-45 -54 -204 l-67 -196 -52 23 c-28 13 -192 87 -365 165 -251 114 -319 141
-342 136 -21 -5 -94 -80 -284 -291 l-256 -284 -44 37 c-74 64 -313 288 -314
294 -1 3 99 95 220 205 122 109 230 210 240 223 26 32 25 49 -21 540 -38 403
-39 425 -23 458 9 20 30 44 47 54 29 18 57 19 422 19 215 0 405 -3 423 -6z
m861 -1504 c102 -45 195 -91 208 -103 15 -14 22 -32 22 -57 0 -30 -148 -939
-165 -1018 -17 -75 -129 -85 -156 -14 -8 20 7 127 66 484 68 406 75 460 63
485 -11 23 -44 42 -180 103 -92 41 -170 78 -173 82 -6 5 28 125 42 150 4 8 5
7 273 -112z m-2132 -255 l57 -54 -56 -58 c-31 -32 -226 -238 -434 -458 -207
-220 -389 -410 -404 -422 -68 -59 -170 13 -129 90 15 29 889 956 901 957 5 0
34 -25 65 -55z"/>
<path d="M2424 4179 c-90 -28 -152 -66 -216 -131 -99 -100 -156 -250 -144
-379 20 -223 171 -400 387 -453 116 -29 223 -15 338 42 209 105 320 362 251
583 -83 265 -363 419 -616 338z m261 -170 c122 -46 207 -173 207 -309 -1 -287
-338 -436 -551 -244 -29 26 -62 69 -78 102 -24 49 -28 69 -28 142 0 71 4 94
26 140 40 85 120 153 209 181 51 15 158 10 215 -12z"/>
</g>
</svg>
