<?xml version="1.0" standalone="no"?>
<!DOCTYPE svg PUBLIC "-//W3C//DTD SVG 20010904//EN"
 "http://www.w3.org/TR/2001/REC-SVG-20010904/DTD/svg10.dtd">
<svg version="1.0" xmlns="http://www.w3.org/2000/svg"
 width="512.000000pt" height="512.000000pt" viewBox="0 0 512.000000 512.000000"
 preserveAspectRatio="xMidYMid meet">

<g transform="translate(0.000000,512.000000) scale(0.100000,-0.100000)"
fill="#000000" stroke="none">
<path d="M2145 5114 c-140 -21 -263 -64 -365 -127 l-65 -41 -120 -1 c-137 -2
-214 -18 -320 -71 -176 -86 -306 -248 -356 -442 -18 -71 -19 -116 -19 -776 1
-535 4 -705 13 -717 26 -34 57 -41 146 -34 289 22 531 122 754 308 l46 39 31
-18 30 -18 0 -116 0 -117 -80 -17 c-44 -9 -84 -15 -88 -12 -12 7 -165 -29
-247 -57 -139 -49 -165 -66 -180 -115 -3 -13 -28 -49 -54 -80 -227 -275 -377
-611 -437 -983 -26 -158 -24 -550 4 -724 12 -71 28 -150 36 -174 9 -24 16 -45
16 -47 0 -2 -35 -4 -79 -4 l-79 0 -4 100 c-3 88 -6 102 -28 125 l-23 25 -207
0 -207 0 -24 -26 -24 -26 -3 -268 c-3 -296 2 -331 53 -350 15 -6 107 -10 206
-10 208 0 231 6 248 68 6 20 11 72 11 115 l0 77 240 0 c132 0 240 -2 240 -5 0
-3 -13 -35 -29 -70 -61 -133 -111 -346 -111 -467 l0 -58 85 0 85 0 0 53 c1 93
60 357 80 357 4 0 12 -11 18 -25 7 -14 23 -30 38 -35 14 -6 106 -10 205 -10
142 0 186 3 209 15 17 9 31 17 32 18 1 1 4 90 7 197 l6 195 535 2 535 3 58
-78 c134 -181 215 -391 233 -611 l7 -81 83 0 84 0 0 44 c0 68 -19 190 -45 291
-45 172 -124 328 -247 487 -62 80 -90 148 -125 303 -21 94 -21 306 1 405 28
133 57 208 81 214 32 8 113 83 135 125 10 20 21 53 25 73 5 26 13 38 28 42 12
3 225 48 472 101 266 57 471 106 502 120 64 29 131 94 163 160 l25 50 3 488 3
488 28 -30 29 -31 200 0 c198 0 201 0 229 24 l28 24 0 292 0 292 -28 24 c-28
24 -31 24 -228 24 -198 0 -200 0 -224 -24 -14 -14 -27 -42 -31 -66 l-7 -41
-24 23 c-24 22 -31 23 -185 23 l-160 0 -22 -26 c-16 -19 -25 -46 -30 -88 l-7
-61 -79 0 -78 0 -4 106 c-3 102 -4 107 -31 130 -28 24 -31 24 -228 24 -199 0
-200 0 -224 -25 l-25 -24 0 -291 0 -291 25 -24 c24 -25 25 -25 224 -25 197 0
200 0 228 24 27 23 28 29 31 125 l4 101 74 0 c53 0 74 -4 74 -12 -2 -78 -50
-708 -56 -723 -16 -42 -49 -78 -88 -96 -37 -17 -70 -19 -323 -19 l-283 0 0 25
c0 58 -24 81 -122 119 -110 43 -233 75 -303 80 -27 2 -78 9 -112 17 l-63 13 0
115 0 116 37 20 c62 34 224 161 305 241 185 182 258 369 258 661 0 292 -87
510 -279 704 -133 134 -269 210 -451 254 -65 16 -268 27 -325 19z m310 -189
c33 -9 103 -37 155 -63 203 -99 370 -322 405 -540 l7 -43 -241 120 c-132 67
-251 121 -263 121 -13 0 -241 -38 -507 -85 -266 -47 -487 -85 -492 -83 -4 2 4
39 19 83 88 263 315 453 600 505 66 12 246 4 317 -15z m-935 -160 c0 -3 -15
-26 -34 -52 -118 -167 -175 -391 -162 -636 16 -284 73 -414 269 -611 66 -65
115 -122 110 -126 -76 -71 -251 -170 -371 -210 -76 -25 -192 -50 -233 -50
l-29 0 0 626 c0 689 0 689 62 806 32 60 106 140 172 185 62 41 216 90 216 68z
m1246 -547 l265 -133 -6 -55 c-12 -109 -27 -167 -67 -250 -34 -71 -56 -100
-137 -180 -292 -291 -539 -367 -796 -245 -94 45 -231 149 -335 254 -132 134
-180 248 -195 464 -4 53 -3 97 1 97 5 1 230 41 499 89 270 49 493 89 497 90 5
0 128 -59 274 -131z m864 -548 l0 -170 -85 0 -85 0 0 170 0 170 85 0 85 0 0
-170z m1110 0 l0 -170 -85 0 -85 0 0 170 0 170 85 0 85 0 0 -170z m-520 -560
c0 -614 -1 -642 -19 -678 -37 -70 -52 -75 -545 -181 l-456 -98 0 203 0 203
308 3 307 3 67 33 c81 40 139 102 168 181 19 48 26 119 51 486 16 237 29 442
29 458 0 25 3 27 45 27 l45 0 0 -640z m-1960 25 c52 0 112 4 133 8 l37 8 0
-124 c0 -136 9 -178 43 -195 12 -7 63 -16 112 -22 50 -6 94 -15 98 -19 4 -4 7
-37 5 -71 l-3 -64 -195 -43 c-107 -23 -211 -42 -230 -42 -19 0 -123 19 -230
43 l-195 42 0 69 0 70 45 7 c25 4 71 10 104 13 43 5 65 13 82 30 23 23 24 30
24 165 l0 141 38 -8 c20 -4 80 -8 132 -8z m743 -414 l27 -11 0 -373 c0 -418 3
-403 -74 -438 -39 -17 -78 -19 -685 -19 -676 0 -692 1 -747 45 l-29 23 0 383
0 382 69 24 c39 12 76 23 83 23 10 0 13 -22 13 -85 0 -83 15 -145 39 -159 6
-4 135 -34 287 -67 l275 -60 277 61 c211 45 281 64 297 80 17 18 20 36 23 129
l4 109 56 -18 c32 -10 69 -23 85 -29z m-1703 -805 c-29 -89 -57 -232 -76 -396
-19 -155 -26 -586 -11 -693 l7 -58 -72 3 -73 3 -19 40 c-31 67 -55 211 -68
408 -19 303 8 532 92 788 42 129 125 305 192 412 l43 67 3 -257 c2 -235 1
-262 -18 -317z m174 -162 c30 -15 36 -25 55 -88 55 -185 57 -397 4 -588 l-16
-58 -75 0 -75 0 7 185 c3 102 11 220 16 263 16 123 43 302 46 302 2 0 19 -7
38 -16z m1342 -66 c-38 -131 -49 -211 -49 -353 0 -145 5 -186 50 -372 l5 -23
-496 0 c-458 0 -496 1 -496 17 0 34 -41 63 -88 63 -43 0 -44 1 -37 28 27 106
37 192 37 317 0 125 -10 211 -37 318 l-7 27 562 0 562 0 -6 -22z m-2266 -1008
l0 -171 -82 3 -83 3 -3 168 -2 167 85 0 85 0 0 -170z m1110 0 l0 -170 -85 0
-85 0 0 170 0 170 85 0 85 0 0 -170z"/>
</g>
</svg>
