<?xml version="1.0" standalone="no"?>
<!DOCTYPE svg PUBLIC "-//W3C//DTD SVG 20010904//EN"
 "http://www.w3.org/TR/2001/REC-SVG-20010904/DTD/svg10.dtd">
<svg version="1.0" xmlns="http://www.w3.org/2000/svg"
 width="512.000000pt" height="512.000000pt" viewBox="0 0 512.000000 512.000000"
 preserveAspectRatio="xMidYMid meet">

<g transform="translate(0.000000,512.000000) scale(0.100000,-0.100000)"
fill="#000000" stroke="none">
<path style="fill:rgb(31, 172, 225);" d="M3383 5105 c-123 -34 -244 -128 -296 -232 l-26 -51 -49 24 c-177 85
-390 46 -532 -96 -145 -145 -180 -350 -92 -540 21 -44 76 -106 291 -323 l266
-267 -723 -722 -722 -723 -267 266 c-217 215 -279 270 -323 291 -190 88 -395
53 -540 -92 -144 -144 -181 -361 -92 -541 l20 -40 -51 -26 c-74 -37 -161 -129
-199 -208 -62 -133 -62 -277 1 -411 25 -54 58 -93 177 -215 l147 -148 -87 -93
c-104 -111 -152 -199 -164 -301 -39 -321 214 -574 536 -535 101 12 189 60 300
164 l93 87 148 -147 c164 -161 221 -198 346 -219 188 -32 404 74 488 240 l26
51 48 -24 c69 -33 147 -47 233 -41 280 20 484 284 431 558 -26 129 -43 152
-330 442 l-266 267 723 722 722 723 267 -266 c217 -215 278 -270 323 -291 209
-97 452 -37 585 143 105 142 124 325 50 482 l-23 48 51 26 c166 84 272 300
240 488 -21 125 -58 182 -219 346 l-147 148 78 83 c142 151 180 240 173 406
-3 87 -7 105 -40 172 -43 90 -89 146 -161 193 -152 101 -352 106 -510 13 -23
-13 -82 -61 -130 -106 l-88 -83 -147 145 c-99 98 -164 154 -199 172 -109 55
-233 69 -340 41z m185 -300 c51 -21 1204 -1173 1232 -1231 26 -52 25 -97 -1
-151 -38 -79 -152 -118 -227 -79 -33 18 -1215 1202 -1231 1233 -6 12 -11 43
-11 69 0 124 123 206 238 159z m1042 -120 c58 -30 92 -88 92 -155 -1 -64 -17
-91 -101 -175 l-71 -70 -122 123 -123 122 70 71 c39 39 79 75 90 81 49 28 114
28 165 3z m-1726 -110 c42 -20 1682 -1662 1696 -1698 54 -146 -102 -289 -238
-218 -46 24 -1664 1644 -1686 1688 -68 137 89 294 228 228z m401 -1295 l120
-120 -723 -723 -722 -722 -122 123 -123 122 720 720 c396 396 722 720 725 720
3 0 59 -54 125 -120z m-2507 -819 c46 -24 1664 -1644 1686 -1688 66 -133 -79
-286 -221 -233 -36 14 -1678 1654 -1698 1696 -67 143 93 297 233 225z m-235
-682 c31 -16 1215 -1198 1233 -1231 8 -15 14 -48 14 -74 0 -124 -123 -206
-238 -159 -51 22 -1206 1174 -1233 1230 -54 116 27 245 154 245 27 0 58 -5 70
-11z m172 -1069 l120 -120 -70 -71 c-83 -84 -113 -101 -175 -101 -69 0 -126
36 -160 101 -16 31 -16 111 0 142 12 24 150 169 160 169 3 0 59 -54 125 -120z"/>
</g>
</svg>
